<svg width="456" height="406" viewBox="0 0 456 406" fill="none" xmlns="http://www.w3.org/2000/svg">
<!-- Белый логотип МГУ с прозрачным фоном -->
<g fill="white">
  <!-- Левая часть -->
  <path d="M90 129C90 129 95 100 165 95L230 91V310L165 320C165 320 92 328 90 250V129Z"/>
  <!-- Правая часть -->
  <path d="M366 129C366 129 361 100 291 95L226 91V310L291 320C291 320 364 328 366 250V129Z"/>
  <!-- Левый парус -->
  <path d="M228 35L165 45L105 125V240L228 270V35Z"/>
  <!-- Правый парус -->
  <path d="M228 35L291 45L351 125V240L228 270V35Z"/>
</g>
</svg>
